<svg width="220" height="40" viewBox="0 0 220 40" fill="none" xmlns="http://www.w3.org/2000/svg">
<path d="M11.6983 29.6145V0.170654H0V39.5432H24.4226L22.8247 29.6145H11.6983Z" fill="#586064"/>
<path d="M27.7861 39.5432H39.4834V0.170654H27.7861V39.5432Z" fill="#586064"/>
<path d="M105.542 0H91.9458L103.51 21.5571L101.618 22.9398L87.9688 32.9128H95.5421V32.9241H104.515L106.797 39.4909H119.235L105.542 0Z" fill="#586064"/>
<path d="M88.0362 0.459717L98.7842 20.7908L72.5693 39.9709L88.0362 0.459717Z" fill="#C04589"/>
<path d="M120.131 32.1845L123.554 30.3584C125.437 33.7247 128.745 36.2919 133.71 36.2919C139.985 36.2919 143.75 32.1845 143.75 26.6504C143.75 21.1163 139.927 17.1797 133.48 17.1797C131.199 17.1797 129.772 17.5792 128.745 17.9787L128.46 17.5792L137.931 6.28288C138.786 5.31358 140.042 4.11508 140.042 4.11508C140.042 4.11508 138.33 4.39998 136.847 4.39998H123.383V0.748779H146.716V1.14828L137.817 11.7602C136.675 13.129 135.535 14.0415 135.535 14.0415C142.894 14.3275 147.915 19.6329 147.915 26.7639C147.915 34.6939 142.096 39.9999 133.88 39.9999C127.433 39.9999 122.356 36.6336 120.131 32.1845Z" fill="#B1B837"/>
<path d="M152.367 26.9931C152.367 23.6268 153.566 20.7168 155.619 17.7506L167.543 0.748779H172.163L163.892 12.5014C162.865 13.928 160.925 15.9812 160.925 15.9812C162.58 14.7837 164.747 13.9848 166.801 13.9848C174.103 13.9848 179.524 19.5762 179.524 26.8785C179.524 34.1241 173.989 39.9999 165.945 39.9999C157.958 39.9999 152.367 34.1809 152.367 26.9931ZM175.301 26.8785C175.301 21.8007 171.822 17.351 165.945 17.351C160.184 17.351 156.589 21.6872 156.589 26.8785C156.589 31.9564 160.184 36.2919 165.945 36.2919C171.707 36.2919 175.301 31.9564 175.301 26.8785Z" fill="#B1B837"/>
<path d="M183.221 20.147C183.221 8.39387 191.209 0.29248 201.477 0.29248C211.746 0.29248 219.733 8.39387 219.733 20.147C219.733 31.8985 211.746 39.9999 201.477 39.9999C191.209 39.9999 183.221 31.8985 183.221 20.147ZM215.397 20.147C215.397 10.7898 209.978 4.00152 201.477 4.00152C192.977 4.00152 187.557 10.7898 187.557 20.147C187.557 29.5026 192.977 36.2919 201.477 36.2919C209.978 36.2919 215.397 29.5026 215.397 20.147Z" fill="#B1B837"/>
<path d="M79.509 12.1464C76.9193 4.7592 70.2389 0.170654 59.7956 0.170654H45.3018V39.5432H60.2517C63.7522 39.5432 66.8206 38.9665 69.4601 37.9226L79.509 12.1464ZM59.3964 30.7553H56.9422V8.95855H59.3395C65.0454 8.95855 69.0397 12.2681 69.0397 19.8564C69.0397 27.6173 65.3308 30.7553 59.3964 30.7553Z" fill="#586064"/>
</svg>
